# xmcd
#
# Track frame offsets:
# 150
# 16930
# 35935
# 48560
# 65920
# 83577
# 104072
# 118607
# 138105
# 151135
# 162145
# 183982
# 207780
# 229950
#
# Disc length: 3317 seconds
#
#
# Revision: 0
# Processed by: cddbd v1.4PL0 Copyright (c) Steve Scherf et al.
# Submitted via: FreeRIP 2.12 
#
DISCID=bd0cf30e
DTITLE=Little Sammy Davis - I Ain't Lyin'
DYEAR=1995
DGENRE=Blues
TTITLE0=I Ain't Lyin'
TTITLE1=Daniel
TTITLE2=Sammy's Shuffle
TTITLE3=Shorty
TTITLE4=That's My Girl
TTITLE5=Someday
TTITLE6=Devil's Trail
TTITLE7=When I Leave
TTITLE8=Bad Luck Blues
TTITLE9=Somebody's Fool
TTITLE10=Hey Little Girl
TTITLE11=California Blues
TTITLE12="I-man" Stomp
TTITLE13=Play Me For A Fool
EXTD=
EXTT0=
EXTT1=
EXTT2=
EXTT3=
EXTT4=
EXTT5=
EXTT6=
EXTT7=
EXTT8=
EXTT9=
EXTT10=
EXTT11=
EXTT12=
EXTT13=
PLAYORDER=
